<svg width="116" height="31" viewBox="0 0 116 31" fill="none" xmlns="http://www.w3.org/2000/svg">
<path fill-rule="evenodd" clip-rule="evenodd" d="M0 0H6.4V7.72729L14.3766 0H24L7.67956 15.3258L24 30.8931H14.4621L6.4 23.083V31H0V0ZM27 0V31H47V24.8L33.6667 24.8V18.6L47 18.6V12.4L33.6667 12.4V6.2L47 6.2V0H27ZM50 0H56.3333L52.5 28.6333L69 24.8V31H50V0ZM78.3333 0H72V31H91V24.8L74.6333 28.5L78.3333 0ZM103.223 10.6018L98.3771 1.29501e-05L91 6.09726e-06L99.6066 19.032V31H106.164V19.348L116 0H108.623L103.223 10.6018Z" fill="#3A474E"/>
</svg>
